<svg width="390" height="103" viewBox="0 0 390 103" fill="none" xmlns="http://www.w3.org/2000/svg">
<path d="M84.5625 29.0625C84.5625 30.4375 84.4167 31.125 84.125 31.125C84.125 31.125 76.5833 31.0625 61.5 30.9375C61.4167 34.9792 61.375 41.2917 61.375 49.875C61.375 58.4583 61.3958 64.4167 61.4375 67.75L61.6875 100.875C61.4792 101.458 61.0625 101.771 60.4375 101.812L47.25 101.625L47.1875 101.688L43.0625 101.625H31.625C28.5417 101.625 26.2292 101.646 24.6875 101.688L23.625 100.75C23.5833 100.708 23.3125 100.375 22.8125 99.75C22.8125 96.0833 22.9583 87.9375 23.25 75.3125L23.9375 42.0625L23.8125 40.5C23.5208 36.375 23.2292 33.9375 22.9375 33.1875C22.6875 32.3958 22.1667 31.9792 21.375 31.9375C20.5833 31.8542 20 31.8125 19.625 31.8125L17.125 31.9375L1.625 31.6875C1.08333 30.6042 0.8125 28.1667 0.8125 24.375L0.9375 18.875V17.1875C0.895833 10.5208 0.833333 6.95833 0.75 6.5C0.833333 6.5 1 6.54167 1.25 6.625L80.8125 5.9375C82.4375 5.9375 83.4583 6.0625 83.875 6.3125C84.2917 6.52083 84.5 6.9375 84.5 7.5625V24.0625L84.5625 29.0625ZM125.849 1.375L125.912 18.5H87.4119C87.4119 14.5 87.3702 11.6458 87.2869 9.9375L87.2244 1.5L125.849 1.375ZM86.5994 1.5L87.2244 0.875V1.5H86.5994ZM126.099 80.1875L126.162 80.75L126.224 90.125C126.224 91.8333 126.141 93.875 125.974 96.25C125.808 98.625 125.662 99.8542 125.537 99.9375L124.412 100.062H101.662L99.0369 100.312C92.5369 100.312 88.5786 100.229 87.1619 100.062V99.625L87.0994 98.4375V95.625C87.0994 87.4167 87.2244 80.6042 87.4744 75.1875L88.1619 27.0625V25.1875L93.0369 25.125L94.0994 25.1875H95.9119L97.4744 25.25L98.2869 25.1875H102.787L103.724 25.125L125.037 25.375C125.204 25.3333 125.329 25.3125 125.412 25.3125C125.495 25.3125 125.537 25.4375 125.537 25.6875L125.599 31.625C125.641 35.5833 125.724 40.8958 125.849 47.5625C125.974 54.1875 126.037 58.875 126.037 61.625L125.974 69.4375V72.75L126.162 76.0625V78C126.162 78.0417 126.141 78.125 126.099 78.25V80.1875ZM180.199 101.938L175.199 102.25C172.657 102.25 170.157 101.958 167.699 101.375C166.032 101.375 163.782 100.938 160.949 100.062C151.449 97.8125 144.365 93.9167 139.699 88.375L138.574 87.0625C134.949 82.3958 132.595 76.125 131.511 68.25L131.324 66.9375C131.157 65.6042 131.074 64.0208 131.074 62.1875C131.074 60.3125 131.428 57.7917 132.136 54.625C134.761 42.9167 140.282 34.8333 148.699 30.375L157.136 25.875C163.386 23.625 171.178 22.5 180.511 22.5C184.053 22.5 187.324 22.9583 190.324 23.875L191.574 24.25C191.532 24.25 191.511 24.2292 191.511 24.1875H191.636C205.761 27.9375 215.157 34.1458 219.824 42.8125L219.949 43.25C222.032 47.4583 223.428 52.1667 224.136 57.375L222.699 56.875H183.574L183.261 54.5625C182.595 49.7708 181.47 46.5833 179.886 45L178.636 44.25C174.97 44.5 172.907 49.5 172.449 59.25C172.407 60.5833 172.345 61.375 172.261 61.625L172.324 63.625L172.511 67.25C172.511 67.5417 172.532 67.8542 172.574 68.1875L173.199 68.8125H172.511C172.72 71.9375 173.365 74.3333 174.449 76C175.574 77.6667 176.699 78.5 177.824 78.5C179.949 78.5 181.407 77.2083 182.199 74.625C182.99 72.0417 183.386 69.6875 183.386 67.5625C186.595 67.3958 191.428 67.3125 197.886 67.3125H200.261L206.261 67.375H212.261L224.324 67.4375C223.032 80.8125 216.72 90.2708 205.386 95.8125C204.553 96.1042 203.407 96.5833 201.949 97.25L199.574 98.375C192.949 100.917 186.886 102.188 181.386 102.188C180.803 102.188 180.407 102.104 180.199 101.938ZM311.486 25.125L312.673 25.1875H317.486C317.736 25.1875 318.09 25.1667 318.548 25.125C319.048 25.0833 319.465 25.0625 319.798 25.0625C319.423 27.0208 318.194 29.6458 316.111 32.9375C315.402 33.7708 314.757 34.7708 314.173 35.9375V35.875C312.048 39.0833 308.048 45.7917 302.173 56C305.173 62.4583 307.882 68.1667 310.298 73.125C312.715 78.0417 314.59 81.875 315.923 84.625L323.486 100.062H280.486L276.173 87.1875C274.423 82.1042 272.277 75.3958 269.736 67.0625L267.361 72.4375V99.9375C263.319 100.062 256.882 100.125 248.048 100.125C239.215 100.125 232.298 100.083 227.298 100V1.9375H247.173L267.048 1.875C267.048 6.91667 267.09 15.9792 267.173 29.0625C267.298 42.1458 267.361 51.3333 267.361 56.625L269.736 49.625C271.236 44.8333 273.986 36.6667 277.986 25.125H311.486ZM377.335 68.875L377.273 69.8125C377.273 71.2708 377.314 72.3542 377.398 73.0625C377.523 73.7292 377.96 74.5417 378.71 75.5C379.46 76.4167 381.898 76.875 386.023 76.875L387.71 76.9375C388.335 76.9375 388.898 76.875 389.398 76.75L389.46 100.062H355.273L353.148 100.188H352.46C350.918 100.188 349.231 99.6875 347.398 98.6875C345.564 97.6875 344.189 96.8125 343.273 96.0625C342.398 95.2708 341.648 94.2708 341.023 93.0625C339.856 90.8125 339.148 88.6042 338.898 86.4375C338.689 84.2292 338.585 81.5 338.585 78.25V43.625H331.21L331.148 34.875V25.9375H338.335V5.25H357.648L376.96 5.1875L377.023 25.8125H387.46L387.523 34.75V43.625H377.335V68.875Z" fill="black"/>
</svg>
