<svg width="123" height="32" viewBox="0 0 123 32" fill="none" xmlns="http://www.w3.org/2000/svg">
<path d="M27.1816 8.83203C27.1816 9.26172 27.1361 9.47656 27.0449 9.47656C27.0449 9.47656 24.6882 9.45703 19.9746 9.41797C19.9486 10.681 19.9355 12.6536 19.9355 15.3359C19.9355 18.0182 19.9421 19.8802 19.9551 20.9219L20.0332 31.2734C19.9681 31.4557 19.8379 31.5534 19.6426 31.5664L15.5215 31.5078L15.502 31.5273L14.2129 31.5078H10.6387C9.67513 31.5078 8.95247 31.5143 8.4707 31.5273L8.13867 31.2344C8.12565 31.2214 8.04102 31.1172 7.88477 30.9219C7.88477 29.776 7.93034 27.2305 8.02148 23.2852L8.23633 12.8945L8.19727 12.4062C8.10612 11.1172 8.01497 10.3555 7.92383 10.1211C7.8457 9.8737 7.68294 9.74349 7.43555 9.73047C7.18815 9.70443 7.00586 9.69141 6.88867 9.69141L6.10742 9.73047L1.26367 9.65234C1.0944 9.3138 1.00977 8.55208 1.00977 7.36719L1.04883 5.64844V5.12109C1.03581 3.03776 1.01628 1.92448 0.990234 1.78125C1.01628 1.78125 1.06836 1.79427 1.14648 1.82031L26.0098 1.60547C26.5176 1.60547 26.8366 1.64453 26.9668 1.72266C27.097 1.78776 27.1621 1.91797 27.1621 2.11328V7.26953L27.1816 8.83203ZM40.0838 0.179688L40.1033 5.53125H28.0721C28.0721 4.28125 28.0591 3.38932 28.033 2.85547L28.0135 0.21875L40.0838 0.179688ZM27.8182 0.21875L28.0135 0.0234375V0.21875H27.8182ZM40.1619 24.8086L40.1815 24.9844L40.201 27.9141C40.201 28.4479 40.1749 29.0859 40.1229 29.8281C40.0708 30.5703 40.0252 30.9544 39.9861 30.9805L39.6346 31.0195H32.5252L31.7049 31.0977C29.6736 31.0977 28.4367 31.0716 27.994 31.0195V30.8828L27.9744 30.5117V29.6328C27.9744 27.0677 28.0135 24.9388 28.0916 23.2461L28.3065 8.20703V7.62109L29.8299 7.60156L30.1619 7.62109H30.7283L31.2166 7.64062L31.4705 7.62109H32.8768L33.1697 7.60156L39.8299 7.67969C39.882 7.66667 39.921 7.66016 39.9471 7.66016C39.9731 7.66016 39.9861 7.69922 39.9861 7.77734L40.0057 9.63281C40.0187 10.8698 40.0447 12.5299 40.0838 14.6133C40.1229 16.6836 40.1424 18.1484 40.1424 19.0078L40.1229 21.4492V22.4844L40.1815 23.5195V24.125C40.1815 24.138 40.1749 24.1641 40.1619 24.2031V24.8086ZM57.068 31.6055L55.5055 31.7031C54.7112 31.7031 53.93 31.612 53.1617 31.4297C52.6409 31.4297 51.9378 31.293 51.0524 31.0195C48.0836 30.3164 45.8701 29.099 44.4117 27.3672L44.0602 26.957C42.9274 25.4987 42.1917 23.5391 41.8531 21.0781L41.7945 20.668C41.7425 20.2513 41.7164 19.7565 41.7164 19.1836C41.7164 18.5977 41.8271 17.8099 42.0485 16.8203C42.8688 13.1615 44.594 10.6354 47.2242 9.24219L49.861 7.83594C51.8141 7.13281 54.249 6.78125 57.1656 6.78125C58.2724 6.78125 59.2945 6.92448 60.232 7.21094L60.6227 7.32812C60.6097 7.32812 60.6031 7.32161 60.6031 7.30859H60.6422C65.0563 8.48047 67.9925 10.4206 69.4508 13.1289L69.4899 13.2656C70.1409 14.5807 70.5771 16.0521 70.7985 17.6797L70.3492 17.5234H58.1227L58.025 16.8008C57.8167 15.3034 57.4651 14.3073 56.9703 13.8125L56.5797 13.5781C55.4339 13.6562 54.7893 15.2188 54.6461 18.2656C54.6331 18.6823 54.6136 18.9297 54.5875 19.0078L54.607 19.6328L54.6656 20.7656C54.6656 20.8568 54.6722 20.9544 54.6852 21.0586L54.8805 21.2539H54.6656C54.7307 22.2305 54.9326 22.9792 55.2711 23.5C55.6227 24.0208 55.9742 24.2812 56.3258 24.2812C56.9899 24.2812 57.4456 23.8776 57.693 23.0703C57.9404 22.263 58.0641 21.5273 58.0641 20.8633C59.0667 20.8112 60.5771 20.7852 62.5953 20.7852H63.3375L65.2125 20.8047H67.0875L70.857 20.8242C70.4534 25.0039 68.4807 27.9596 64.9391 29.6914C64.6787 29.7826 64.3206 29.9323 63.8649 30.1406L63.1227 30.4922C61.0524 31.2865 59.1578 31.6836 57.4391 31.6836C57.2568 31.6836 57.1331 31.6576 57.068 31.6055ZM98.0951 7.60156L98.4662 7.62109H99.9701C100.048 7.62109 100.159 7.61458 100.302 7.60156C100.458 7.58854 100.589 7.58203 100.693 7.58203C100.576 8.19401 100.191 9.01432 99.5405 10.043C99.3191 10.3034 99.1173 10.6159 98.935 10.9805V10.9609C98.2709 11.9635 97.0209 14.0599 95.185 17.25C96.1225 19.2682 96.9688 21.0521 97.724 22.6016C98.4793 24.138 99.0652 25.3359 99.4819 26.1953L101.845 31.0195H88.4076L87.06 26.9961C86.5131 25.4076 85.8425 23.3112 85.0483 20.707L84.3061 22.3867V30.9805C83.0431 31.0195 81.0313 31.0391 78.2709 31.0391C75.5105 31.0391 73.349 31.026 71.7865 31V0.355469H77.9975L84.2084 0.335938C84.2084 1.91146 84.2214 4.74349 84.2475 8.83203C84.2865 12.9206 84.3061 15.7917 84.3061 17.4453L85.0483 15.2578C85.517 13.7604 86.3764 11.2083 87.6264 7.60156H98.0951ZM118.673 21.2734L118.654 21.5664C118.654 22.0221 118.667 22.3607 118.693 22.582C118.732 22.7904 118.868 23.0443 119.103 23.3438C119.337 23.6302 120.099 23.7734 121.388 23.7734L121.915 23.793C122.111 23.793 122.286 23.7734 122.443 23.7344L122.462 31.0195H111.779L111.114 31.0586H110.9C110.418 31.0586 109.891 30.9023 109.318 30.5898C108.745 30.2773 108.315 30.0039 108.029 29.7695C107.755 29.5221 107.521 29.2096 107.325 28.832C106.961 28.1289 106.739 27.4388 106.661 26.7617C106.596 26.0716 106.564 25.2188 106.564 24.2031V13.3828H104.259L104.239 10.6484V7.85547H106.486V1.39062H112.521L118.556 1.37109L118.575 7.81641H121.837L121.857 10.6094V13.3828H118.673V21.2734Z" fill="black"/>
</svg>
